<svg width="123" height="48" viewBox="0 0 123 48" fill="none" xmlns="http://www.w3.org/2000/svg">
<path d="M118.973 18.8665C120.832 19.0591 122.289 19.2309 122.289 19.2309L119.014 15.6169C119.029 15.2615 119.047 14.9238 119.071 14.6068C119.218 12.8324 118.101 11.221 118.145 14.6572L107.653 3.08073L79.2437 0L88.8376 10.9692C95.1094 1.10788 107.653 11.0314 107.653 11.0314C99.4128 7.14789 95.3548 7.2723 92.1568 9.49102C88.7194 12.2933 85.8259 17.4624 91.2701 19.9003C97.134 22.7796 104.898 25.8159 111.22 23.1736L111.283 18.4281C111.897 18.2237 115.211 18.4903 118.045 18.7717C118.228 24.5244 116.966 28.3546 116.94 32.9312C116.94 32.9312 119.236 34.3294 120.3 32.9312C119.806 27.1667 118.864 24.9539 118.973 18.8665ZM109.45 22.0272C109.125 24.8858 88.8258 19.5686 89.9401 16.9144C90.2652 14.0558 110.567 19.376 109.45 22.0272Z" fill="#F37124"/>
<path d="M0.53997 44.6229H0.214852L0.146873 43.1773H0.607948L0.53997 44.6229ZM1.75177 44.6229H1.42961L1.36163 43.1773H1.8227L1.75177 44.6229Z" fill="#515251"/>
<path d="M2.8469 43.2931H3.30502V47.8905H2.8469V43.2931Z" fill="#515251"/>
<path d="M4.6686 44.4897H5.10604V45.1C5.28042 44.8659 5.47253 44.6912 5.68533 44.5756C5.89814 44.4601 6.12867 44.4009 6.37695 44.4009C6.63113 44.4009 6.85575 44.466 7.05082 44.5934C7.24589 44.7238 7.39367 44.8956 7.4853 45.1148C7.57988 45.334 7.62421 45.6746 7.62421 46.1367V47.8874H7.18678V46.2671C7.18678 45.8761 7.16905 45.6124 7.13949 45.4821C7.08925 45.257 6.99171 45.0881 6.84984 44.9755C6.70502 44.863 6.51881 44.8067 6.28828 44.8067C6.02523 44.8067 5.78878 44.8956 5.57893 45.0703C5.36908 45.2451 5.23313 45.4614 5.16515 45.7191C5.12377 45.8879 5.10308 46.196 5.10308 46.6433V47.8904H4.66565V44.4897H4.6686Z" fill="#515251"/>
<path d="M8.9436 44.4897H9.38103V45.1C9.55541 44.8659 9.74752 44.6912 9.96033 44.5756C10.1731 44.4601 10.4037 44.4009 10.6519 44.4009C10.9061 44.4009 11.1307 44.466 11.3258 44.5934C11.5209 44.7238 11.6687 44.8956 11.7603 45.1148C11.8549 45.334 11.8992 45.6746 11.8992 46.1367V47.8874H11.4618V46.2671C11.4618 45.8761 11.444 45.6124 11.4145 45.4821C11.3642 45.257 11.2667 45.0881 11.1248 44.9755C10.98 44.863 10.7938 44.8067 10.5633 44.8067C10.3002 44.8067 10.0638 44.8956 9.85392 45.0703C9.64408 45.2451 9.50812 45.4614 9.44014 45.7191C9.39876 45.8879 9.37807 46.196 9.37807 46.6433V47.8904H8.94064V44.4897H8.9436Z" fill="#515251"/>
<path d="M14.8265 44.4009C15.3497 44.4009 15.7812 44.5905 16.127 44.9696C16.4403 45.3162 16.594 45.725 16.594 46.199C16.594 46.6729 16.4284 47.0906 16.1004 47.4431C15.7693 47.7986 15.3467 47.9763 14.8265 47.9763C14.3063 47.9763 13.8807 47.7986 13.5497 47.4431C13.2187 47.0876 13.0531 46.6729 13.0531 46.199C13.0531 45.728 13.2098 45.3192 13.5201 44.9755C13.8689 44.5934 14.3034 44.4009 14.8265 44.4009ZM14.8265 44.8304C14.463 44.8304 14.1526 44.9637 13.8896 45.2333C13.6295 45.5028 13.4994 45.8257 13.4994 46.2078C13.4994 46.4537 13.5586 46.6818 13.6768 46.8951C13.795 47.1084 13.9576 47.2713 14.1585 47.3868C14.3595 47.5023 14.5842 47.5616 14.8236 47.5616C15.0659 47.5616 15.2876 47.5023 15.4886 47.3868C15.6895 47.2713 15.8521 47.1084 15.9703 46.8951C16.0886 46.6818 16.1477 46.4537 16.1477 46.2078C16.1477 45.8257 16.0176 45.5028 15.7546 45.2333C15.4974 44.9637 15.1871 44.8304 14.8265 44.8304Z" fill="#515251"/>
<path d="M17.4656 44.4899H17.9297L19.0676 46.9693L20.1937 44.4899H20.6607L19.109 47.8906H19.0292L17.4656 44.4899Z" fill="#515251"/>
<path d="M25.0913 44.4899V47.8905H24.6598V47.307C24.4766 47.5292 24.2726 47.698 24.0451 47.8106C23.8175 47.9231 23.5692 47.9794 23.2973 47.9794C22.8185 47.9794 22.4077 47.8046 22.0678 47.4551C21.7279 47.1056 21.5594 46.682 21.5594 46.1813C21.5594 45.6926 21.7308 45.2719 22.0737 44.9253C22.4165 44.5788 22.8303 44.404 23.3121 44.404C23.5899 44.404 23.8411 44.4632 24.0687 44.5817C24.2933 44.7002 24.4914 44.8779 24.6628 45.1149V44.4899H25.0913ZM23.3475 44.8246C23.1052 44.8246 22.8805 44.8839 22.6737 45.0053C22.4668 45.1238 22.3042 45.2927 22.183 45.5089C22.0618 45.7252 21.9998 45.9532 21.9998 46.1961C21.9998 46.4361 22.0618 46.6642 22.183 46.8834C22.3042 47.1026 22.4697 47.2714 22.6766 47.3929C22.8835 47.5143 23.1052 47.5766 23.3416 47.5766C23.581 47.5766 23.8057 47.5173 24.0214 47.3959C24.2342 47.2744 24.3997 47.1115 24.515 46.9071C24.6303 46.6997 24.6894 46.4687 24.6894 46.211C24.6894 45.817 24.5593 45.4882 24.3022 45.2245C24.0421 44.955 23.7229 44.8246 23.3475 44.8246Z" fill="#515251"/>
<path d="M26.8316 43.2278H27.269V44.4897H27.9606V44.8689H27.269V47.8904H26.8316V44.8689H26.2375V44.4897H26.8316V43.2278Z" fill="#515251"/>
<path d="M31.858 46.7619L32.2245 46.9545C32.1033 47.1915 31.9644 47.384 31.8048 47.5292C31.6481 47.6743 31.4678 47.7869 31.2698 47.8609C31.0718 47.9379 30.8472 47.9765 30.5989 47.9765C30.0462 47.9765 29.6117 47.7958 29.3014 47.4314C28.9881 47.067 28.8344 46.6583 28.8344 46.1991C28.8344 45.7666 28.9674 45.3845 29.2304 45.0468C29.5644 44.6173 30.0137 44.404 30.5752 44.404C31.1545 44.404 31.6156 44.6232 31.9614 45.0646C32.2067 45.3756 32.3309 45.7637 32.3368 46.2258H29.2836C29.2925 46.6197 29.4167 46.9456 29.662 47.1974C29.9043 47.4492 30.2058 47.5766 30.5634 47.5766C30.7348 47.5766 30.9033 47.5469 31.0688 47.4877C31.2314 47.4284 31.3703 47.3485 31.4856 47.2477C31.6008 47.1441 31.725 46.9841 31.858 46.7619ZM31.858 45.8466C31.7989 45.6126 31.7161 45.426 31.6038 45.2867C31.4915 45.1475 31.3467 45.0349 31.1634 44.949C30.9802 44.8631 30.788 44.8217 30.5871 44.8217C30.2531 44.8217 29.9664 44.9283 29.7299 45.1446C29.5556 45.3016 29.4226 45.5356 29.3339 45.8466H31.858Z" fill="#515251"/>
<path d="M34.0155 47.2003C34.1219 47.2003 34.2106 47.2388 34.2874 47.3129C34.3613 47.3869 34.3997 47.4787 34.3997 47.5883C34.3997 47.695 34.3613 47.7868 34.2874 47.8609C34.2135 47.9379 34.1219 47.9764 34.0155 47.9764C33.9091 47.9764 33.8204 47.9379 33.7436 47.8609C33.6697 47.7839 33.6313 47.695 33.6313 47.5883C33.6313 47.4787 33.6697 47.3899 33.7436 47.3129C33.8175 47.2388 33.9091 47.2003 34.0155 47.2003Z" fill="#515251"/>
<path d="M37.9125 43.2931H40.5401V43.7433H38.3706V45.183H40.5223V45.6332H38.3706V47.4402H40.5223V47.8905H37.9125V43.2931Z" fill="#515251"/>
<path d="M45.0288 43.1774V47.8904H44.5973V47.3068C44.4141 47.529 44.2101 47.6978 43.9826 47.8104C43.755 47.9229 43.5067 47.9792 43.2348 47.9792C42.756 47.9792 42.3452 47.8044 42.0053 47.4549C41.6654 47.1054 41.4969 46.6818 41.4969 46.1811C41.4969 45.6924 41.6683 45.2717 42.0112 44.9252C42.354 44.5786 42.7678 44.4038 43.2496 44.4038C43.5274 44.4038 43.7786 44.463 44.0062 44.5815C44.2308 44.7 44.4289 44.8778 44.6003 45.1147V43.1774H45.0288ZM43.285 44.8244C43.0427 44.8244 42.8181 44.8837 42.6112 45.0051C42.4043 45.1266 42.2417 45.2925 42.1205 45.5087C41.9993 45.725 41.9373 45.953 41.9373 46.196C41.9373 46.4359 41.9993 46.664 42.1205 46.8832C42.2417 47.1024 42.4072 47.2712 42.6141 47.3927C42.821 47.5142 43.0427 47.5764 43.2791 47.5764C43.5185 47.5764 43.7432 47.5171 43.9589 47.3957C44.1717 47.2742 44.3372 47.1113 44.4525 46.9069C44.5678 46.6995 44.6239 46.4685 44.6239 46.2108C44.6239 45.8168 44.4939 45.488 44.2367 45.2243C43.9796 44.9548 43.6634 44.8244 43.285 44.8244Z" fill="#515251"/>
<path d="M46.3438 44.4898H46.7812V46.0775C46.7812 46.4656 46.8019 46.7322 46.8433 46.8773C46.9053 47.0847 47.0236 47.2506 47.2009 47.372C47.3782 47.4935 47.5851 47.5527 47.8304 47.5527C48.0728 47.5527 48.2797 47.4935 48.4511 47.375C48.6196 47.2565 48.7378 47.1025 48.8028 46.9099C48.8472 46.7796 48.8679 46.5011 48.8679 46.0746V44.4868H49.3141V46.1545C49.3141 46.6226 49.2609 46.9751 49.1516 47.215C49.0422 47.452 48.8797 47.6386 48.658 47.7719C48.4393 47.9052 48.1644 47.9734 47.8334 47.9734C47.5024 47.9734 47.2275 47.9052 47.0058 47.7719C46.7842 47.6386 46.6186 47.449 46.5093 47.2091C46.3999 46.9692 46.3467 46.6078 46.3467 46.122V44.4898H46.3438Z" fill="#515251"/>
<path d="M53.9555 45.1949L53.6097 45.4112C53.3111 45.0142 52.9033 44.8157 52.386 44.8157C51.9723 44.8157 51.6294 44.949 51.3575 45.2156C51.0856 45.4822 50.9467 45.8051 50.9467 46.1873C50.9467 46.4361 51.0087 46.6671 51.1358 46.8863C51.2629 47.1056 51.4343 47.2744 51.653 47.3959C51.8718 47.5173 52.1171 47.5766 52.389 47.5766C52.8885 47.5766 53.2934 47.3781 53.6097 46.9811L53.9555 47.2092C53.7929 47.4551 53.5742 47.6447 53.3023 47.778C53.0304 47.9142 52.7171 47.9794 52.3683 47.9794C51.8333 47.9794 51.387 47.8076 51.0353 47.4669C50.6836 47.1263 50.5063 46.7086 50.5063 46.2198C50.5063 45.891 50.589 45.5859 50.7545 45.3016C50.9201 45.0201 51.1476 44.798 51.4373 44.641C51.7269 44.484 52.0491 44.404 52.4067 44.404C52.6313 44.404 52.8471 44.4395 53.057 44.5077C53.2668 44.5758 53.4441 44.6647 53.589 44.7772C53.7308 44.8839 53.852 45.0261 53.9555 45.1949Z" fill="#515251"/>
<path d="M58.5601 44.4899V47.8905H58.1286V47.307C57.9453 47.5292 57.7414 47.698 57.5138 47.8106C57.2862 47.9231 57.038 47.9794 56.766 47.9794C56.2872 47.9794 55.8764 47.8046 55.5365 47.4551C55.1966 47.1056 55.0281 46.682 55.0281 46.1813C55.0281 45.6926 55.1996 45.2719 55.5424 44.9253C55.8853 44.5788 56.299 44.404 56.7808 44.404C57.0586 44.404 57.3099 44.4632 57.5374 44.5817C57.7621 44.7002 57.9601 44.8779 58.1315 45.1149V44.4899H58.5601ZM56.8163 44.8246C56.5739 44.8246 56.3493 44.8839 56.1424 45.0053C55.9355 45.1238 55.7729 45.2927 55.6518 45.5089C55.5306 45.7252 55.4685 45.9532 55.4685 46.1961C55.4685 46.4361 55.5306 46.6642 55.6518 46.8834C55.7729 47.1026 55.9385 47.2714 56.1454 47.3929C56.3522 47.5143 56.5739 47.5766 56.8104 47.5766C57.0498 47.5766 57.2744 47.5173 57.4902 47.3959C57.703 47.2744 57.8685 47.1115 57.9837 46.9071C58.099 46.6997 58.1581 46.4687 58.1581 46.211C58.1581 45.817 58.0281 45.4882 57.7709 45.2245C57.5108 44.955 57.1916 44.8246 56.8163 44.8246Z" fill="#515251"/>
<path d="M60.3035 43.2278H60.7409V44.4897H61.4325V44.8689H60.7409V47.8904H60.3035V44.8689H59.7094V44.4897H60.3035V43.2278Z" fill="#515251"/>
<path d="M65.3269 46.7619L65.6934 46.9545C65.5722 47.1915 65.4333 47.384 65.2767 47.5292C65.12 47.6743 64.9397 47.7869 64.7417 47.8609C64.5437 47.9379 64.319 47.9765 64.0708 47.9765C63.5181 47.9765 63.0836 47.7958 62.7733 47.4314C62.4629 47.067 62.3063 46.6583 62.3063 46.1991C62.3063 45.7666 62.4393 45.3845 62.7023 45.0468C63.0363 44.6173 63.4856 44.404 64.0471 44.404C64.6264 44.404 65.0875 44.6232 65.4333 45.0646C65.6786 45.3756 65.8028 45.7637 65.8087 46.2258H62.7555C62.7644 46.6197 62.8885 46.9456 63.1338 47.1974C63.3762 47.4492 63.6777 47.5766 64.0353 47.5766C64.2067 47.5766 64.3752 47.5469 64.5407 47.4877C64.7033 47.4284 64.8422 47.3485 64.9575 47.2477C65.0698 47.1441 65.1939 46.9841 65.3269 46.7619ZM65.3269 45.8466C65.2678 45.6126 65.185 45.426 65.0727 45.2867C64.9604 45.1475 64.8126 45.0349 64.6323 44.949C64.4491 44.8631 64.257 44.8217 64.056 44.8217C63.722 44.8217 63.4353 44.9283 63.1989 45.1446C63.0245 45.3016 62.8915 45.5356 62.8028 45.8466H65.3269Z" fill="#515251"/>
<path d="M67.4811 47.2003C67.5875 47.2003 67.6762 47.2388 67.753 47.3129C67.8269 47.3869 67.8653 47.4787 67.8653 47.5883C67.8653 47.695 67.8269 47.7868 67.753 47.8609C67.6791 47.9379 67.5875 47.9764 67.4811 47.9764C67.3747 47.9764 67.286 47.9379 67.2092 47.8609C67.1353 47.7839 67.0969 47.695 67.0969 47.5883C67.0969 47.4787 67.1353 47.3899 67.2092 47.3129C67.286 47.2388 67.3777 47.2003 67.4811 47.2003Z" fill="#515251"/>
<path d="M70.9 47.0343L71.2902 46.8003C71.565 47.3068 71.8813 47.5586 72.2419 47.5586C72.3956 47.5586 72.5404 47.523 72.6763 47.4519C72.8123 47.3808 72.9157 47.2831 72.9837 47.1616C73.0547 47.0402 73.0901 46.9128 73.0901 46.7766C73.0901 46.6225 73.0369 46.4714 72.9335 46.3233C72.7887 46.1189 72.5286 45.8731 72.1473 45.5857C71.766 45.2954 71.5266 45.0881 71.432 44.9577C71.2695 44.7415 71.1897 44.5075 71.1897 44.2557C71.1897 44.0572 71.237 43.8736 71.3315 43.7077C71.4261 43.5418 71.5621 43.4144 71.7365 43.3196C71.9108 43.2248 72.1 43.1774 72.301 43.1774C72.5167 43.1774 72.7177 43.2307 72.9069 43.3374C73.096 43.444 73.2941 43.6425 73.5039 43.9298L73.1286 44.2142C72.9571 43.9861 72.8093 43.835 72.6882 43.761C72.567 43.6869 72.434 43.6514 72.2892 43.6514C72.103 43.6514 71.9522 43.7077 71.8369 43.8202C71.7187 43.9328 71.6596 44.072 71.6596 44.2349C71.6596 44.3357 71.6803 44.4305 71.7217 44.5252C71.7631 44.62 71.8399 44.7208 71.9493 44.8304C72.0084 44.8896 72.2064 45.0407 72.5404 45.2895C72.9364 45.5828 73.2084 45.8434 73.3561 46.0745C73.5039 46.3026 73.5778 46.5336 73.5778 46.7647C73.5778 47.0965 73.4507 47.3868 73.1995 47.6326C72.9453 47.8785 72.6409 48 72.2773 48C71.9995 48 71.7453 47.9259 71.5207 47.7778C71.302 47.6326 71.0921 47.3838 70.9 47.0343Z" fill="#515251"/>
<path d="M74.8125 44.4898H75.2499V46.0775C75.2499 46.4656 75.2706 46.7322 75.312 46.8773C75.3741 47.0847 75.4923 47.2506 75.6696 47.372C75.844 47.4935 76.0539 47.5527 76.2992 47.5527C76.5415 47.5527 76.7484 47.4935 76.9199 47.375C77.0883 47.2565 77.2066 47.1025 77.2716 46.9099C77.3159 46.7796 77.3366 46.5011 77.3366 46.0746V44.4868H77.7829V46.1545C77.7829 46.6226 77.7297 46.9751 77.6203 47.215C77.511 47.452 77.3484 47.6386 77.1268 47.7719C76.908 47.9052 76.6332 47.9734 76.3021 47.9734C75.9711 47.9734 75.6962 47.9052 75.4746 47.7719C75.2529 47.6386 75.0874 47.449 74.978 47.2091C74.8687 46.9692 74.8155 46.6078 74.8155 46.122V44.4898H74.8125Z" fill="#515251"/>
<path d="M82.4273 45.1949L82.0815 45.4112C81.783 45.0142 81.3751 44.8157 80.8579 44.8157C80.4441 44.8157 80.1013 44.949 79.8294 45.2156C79.5574 45.4822 79.4185 45.8051 79.4185 46.1873C79.4185 46.4361 79.4806 46.6671 79.6077 46.8863C79.7318 47.1056 79.9062 47.2744 80.1249 47.3959C80.3436 47.5173 80.589 47.5766 80.8609 47.5766C81.3604 47.5766 81.7653 47.3781 82.0815 46.9811L82.4273 47.2092C82.2648 47.4551 82.0461 47.6447 81.7741 47.778C81.4993 47.9142 81.1889 47.9794 80.8402 47.9794C80.3052 47.9794 79.8589 47.8076 79.5072 47.4669C79.1525 47.1263 78.9781 46.7086 78.9781 46.2198C78.9781 45.891 79.0609 45.5859 79.2264 45.3016C79.3919 45.0201 79.6195 44.798 79.9092 44.641C80.1988 44.484 80.521 44.404 80.8786 44.404C81.1032 44.404 81.319 44.4395 81.5288 44.5077C81.7387 44.5758 81.916 44.6647 82.0608 44.7772C82.2027 44.8839 82.3239 45.0261 82.4273 45.1949Z" fill="#515251"/>
<path d="M86.9398 45.1949L86.594 45.4112C86.2955 45.0142 85.8876 44.8157 85.3704 44.8157C84.9566 44.8157 84.6138 44.949 84.3419 45.2156C84.0699 45.4822 83.931 45.8051 83.931 46.1873C83.931 46.4361 83.9931 46.6671 84.1202 46.8863C84.2443 47.1056 84.4187 47.2744 84.6374 47.3959C84.8561 47.5173 85.1014 47.5766 85.3734 47.5766C85.8729 47.5766 86.2778 47.3781 86.594 46.9811L86.9398 47.2092C86.7773 47.4551 86.5586 47.6447 86.2866 47.778C86.0118 47.9142 85.7014 47.9794 85.3527 47.9794C84.8177 47.9794 84.3714 47.8076 84.0197 47.4669C83.665 47.1263 83.4906 46.7086 83.4906 46.2198C83.4906 45.891 83.5734 45.5859 83.7389 45.3016C83.9044 45.0201 84.132 44.798 84.4217 44.641C84.7113 44.484 85.0335 44.404 85.3911 44.404C85.6157 44.404 85.8315 44.4395 86.0413 44.5077C86.2512 44.5758 86.4285 44.6647 86.5733 44.7772C86.7152 44.8839 86.8393 45.0261 86.9398 45.1949Z" fill="#515251"/>
<path d="M91.0175 46.7619L91.384 46.9545C91.2628 47.1915 91.1239 47.384 90.9673 47.5292C90.8106 47.6743 90.6303 47.7869 90.4323 47.8609C90.2343 47.9379 90.0097 47.9765 89.7614 47.9765C89.2087 47.9765 88.7742 47.7958 88.4639 47.4314C88.1535 47.067 87.9969 46.6583 87.9969 46.1991C87.9969 45.7666 88.1299 45.3845 88.3929 45.0468C88.7269 44.6173 89.1762 44.404 89.7377 44.404C90.317 44.404 90.7781 44.6232 91.1239 45.0646C91.3692 45.3756 91.4934 45.7637 91.4993 46.2258H88.4461C88.455 46.6197 88.5791 46.9456 88.8245 47.1974C89.0668 47.4492 89.3683 47.5766 89.7259 47.5766C89.8973 47.5766 90.0658 47.5469 90.2313 47.4877C90.3939 47.4284 90.5328 47.3485 90.6481 47.2477C90.7604 47.1441 90.8845 46.9841 91.0175 46.7619ZM91.0175 45.8466C90.9584 45.6126 90.8756 45.426 90.7633 45.2867C90.651 45.1475 90.5032 45.0349 90.3229 44.949C90.1397 44.8631 89.9476 44.8217 89.7466 44.8217C89.4126 44.8217 89.1259 44.9283 88.8895 45.1446C88.7151 45.3016 88.5821 45.5356 88.4934 45.8466H91.0175Z" fill="#515251"/>
<path d="M95.5519 46.7619L95.9184 46.9545C95.7972 47.1915 95.6583 47.384 95.5016 47.5292C95.345 47.6743 95.1647 47.7869 94.9667 47.8609C94.7687 47.9379 94.544 47.9765 94.2958 47.9765C93.7431 47.9765 93.3086 47.7958 92.9982 47.4314C92.6879 47.067 92.5313 46.6583 92.5313 46.1991C92.5313 45.7666 92.6643 45.3845 92.9273 45.0468C93.2613 44.6173 93.7106 44.404 94.2721 44.404C94.8514 44.404 95.3125 44.6232 95.6583 45.0646C95.9036 45.3756 96.0277 45.7637 96.0337 46.2258H92.9805C92.9894 46.6197 93.1135 46.9456 93.3588 47.1974C93.6012 47.4492 93.9027 47.5766 94.2603 47.5766C94.4317 47.5766 94.6002 47.5469 94.7657 47.4877C94.9283 47.4284 95.0672 47.3485 95.1824 47.2477C95.2948 47.1441 95.4189 46.9841 95.5519 46.7619ZM95.5519 45.8466C95.4928 45.6126 95.41 45.426 95.2977 45.2867C95.1854 45.1475 95.0376 45.0349 94.8573 44.949C94.6741 44.8631 94.482 44.8217 94.281 44.8217C93.947 44.8217 93.6603 44.9283 93.4239 45.1446C93.2495 45.3016 93.1165 45.5356 93.0278 45.8466H95.5519Z" fill="#515251"/>
<path d="M100.613 43.1774V47.8904H100.182V47.3068C99.9983 47.529 99.7943 47.6978 99.5668 47.8104C99.3392 47.9229 99.0909 47.9792 98.819 47.9792C98.3402 47.9792 97.9293 47.8044 97.5895 47.4549C97.2496 47.1054 97.0781 46.6818 97.0781 46.1811C97.0781 45.6924 97.2496 45.2717 97.5924 44.9252C97.9353 44.5786 98.349 44.4038 98.8308 44.4038C99.1086 44.4038 99.3628 44.463 99.5874 44.5815C99.8121 44.7 100.01 44.8778 100.182 45.1147V43.1774H100.613ZM98.8663 44.8244C98.6239 44.8244 98.3993 44.8837 98.1924 45.0051C97.9855 45.1236 97.8229 45.2925 97.7018 45.5087C97.5806 45.725 97.5185 45.953 97.5185 46.196C97.5185 46.4359 97.5806 46.664 97.7018 46.8832C97.8229 47.1024 97.9885 47.2712 98.1954 47.3927C98.4023 47.5142 98.6239 47.5764 98.8604 47.5764C99.0998 47.5764 99.3244 47.5171 99.5402 47.3957C99.753 47.2742 99.9185 47.1113 100.034 46.9069C100.149 46.6995 100.205 46.4685 100.205 46.2108C100.205 45.8168 100.075 45.488 99.818 45.2243C99.5638 44.9548 99.2446 44.8244 98.8663 44.8244Z" fill="#515251"/>
<path d="M102.466 47.2003C102.572 47.2003 102.661 47.2388 102.737 47.3129C102.811 47.3869 102.85 47.4787 102.85 47.5883C102.85 47.695 102.811 47.7868 102.737 47.8609C102.664 47.9379 102.572 47.9764 102.466 47.9764C102.359 47.9764 102.27 47.9379 102.194 47.8609C102.12 47.7839 102.081 47.695 102.081 47.5883C102.081 47.4787 102.12 47.3899 102.194 47.3129C102.27 47.2388 102.359 47.2003 102.466 47.2003Z" fill="#515251"/>
<path d="M104.19 44.623H103.865L103.797 43.1774H104.258L104.19 44.623ZM105.402 44.623H105.08L105.012 43.1774H105.473L105.402 44.623Z" fill="#515251"/>
<path d="M17.0775 25.9494C17.0568 26.8114 16.9031 27.546 16.6075 28.1503C16.3149 28.7576 15.845 29.3441 15.2007 29.9129C15.845 30.4816 16.3149 31.0681 16.6075 31.6754C16.9002 32.2827 17.0568 33.0173 17.0775 33.8763C17.0775 34.7384 16.9179 35.55 16.5928 36.3143C16.2677 37.0785 15.8273 37.7421 15.2598 38.3108C14.6923 38.8796 14.0303 39.3239 13.2677 39.6468C12.5052 39.9697 11.6953 40.1326 10.8353 40.1326H7.82053H4.51025H0V19.6961H4.51025H8.90524H10.8382C11.6983 19.6961 12.5081 19.859 13.2707 20.1819C14.0332 20.5048 14.6953 20.9491 15.2627 21.5179C15.8302 22.0866 16.2736 22.7502 16.5957 23.5144C16.9179 24.2757 17.0775 25.0874 17.0775 25.9494ZM12.5672 25.9494C12.5672 25.4784 12.4017 25.0785 12.0677 24.7467C11.7367 24.4149 11.3259 24.2461 10.8382 24.2461H4.51025V27.6527H10.8382C11.3259 27.6527 11.7367 27.4868 12.0677 27.155C12.4017 26.8203 12.5672 26.4174 12.5672 25.9494ZM12.5672 33.8615C12.5672 33.3965 12.4017 33.0025 12.0677 32.6826C11.7367 32.3626 11.3259 32.2027 10.8382 32.2027H4.51025V35.5796H10.8382C11.3259 35.5796 11.7367 35.4137 12.0677 35.0849C12.4017 34.7532 12.5672 34.3473 12.5672 33.8615Z" fill="#243B79"/>
<path d="M35.9463 40.1296H31.4065V33.3461H24.6086V40.1296H20.0687V19.7227H24.6086V28.7961H31.4065V19.7227H35.9463V40.1296Z" fill="#243B79"/>
<path d="M52.7616 40.1297H43.679H41.4239H39.1687V24.2461V19.6961H43.679H52.7616V24.2461H43.679V27.6231H52.7616V32.1731H43.679V35.5797H52.7616V40.1297Z" fill="#243B79"/>
<path d="M78.2901 19.6931V31.4384C78.2901 32.6321 78.0596 33.7578 77.6014 34.8153C77.1433 35.8728 76.5227 36.7911 75.7424 37.5761C74.9621 38.3582 74.037 38.9802 72.973 39.4394C71.9089 39.8985 70.7799 40.1296 69.5888 40.1296C68.377 40.1296 67.245 39.8985 66.1899 39.4394C65.1347 38.9802 64.2185 38.3582 63.4352 37.5761C62.6549 36.7941 62.0343 35.8728 61.5762 34.8153C61.118 33.7578 60.8875 32.6321 60.8875 31.4384V19.6931H65.4273V31.4176C65.4273 31.9834 65.5337 32.5225 65.7495 33.0291C65.9652 33.5386 66.2637 33.9829 66.6421 34.3621C67.0233 34.7442 67.4637 35.0404 67.9603 35.2567C68.4598 35.4729 69.0006 35.5796 69.5858 35.5796C70.1533 35.5796 70.6883 35.4729 71.1967 35.2567C71.705 35.0434 72.1484 34.7442 72.5296 34.3621C72.9109 33.98 73.2094 33.5356 73.4222 33.0291C73.638 32.5225 73.7444 31.9834 73.7444 31.4176V19.6931H78.2901Z" fill="#263A7F"/>
<path d="M97.9284 40.1296L85.6242 29.5603V40.1296H81.0844V19.6931L93.4182 30.2624V19.6931H97.9284V40.1296Z" fill="#263A7F"/>
<path d="M105.276 40.1296H100.765V19.6931H105.276V40.1296Z" fill="#263A7F"/>
</svg>
